# xmcd
#
# Track frame offsets: 
#        150
#        28793
#        57436
#        86079
#        110974
#
# Disc length: 1809 seconds
#
# Revision: 1
# Processed by: cddbd v1.5.2PL0 Copyright (c) Steve Scherf et al.
# Submitted via: ExactAudioCopy v1.0b3
#
DISCID=44070f05
DTITLE=島津亜矢 - 浦里｜女優・須磨子
DYEAR=2009
DGENRE=Other
TTITLE0=新内「明烏」より　浦里
TTITLE1=オリジナル・カラオケ - 新内「明烏」より　浦里（オリジナル・カラオケ）
TTITLE2=メロ入りカラオケ - 新内「明烏」より　浦里（メロ入りカラオケ）
TTITLE3=女優・須磨子
TTITLE4=オリジナル・カラオケ - 女優・須磨子（オリジナル・カラオケ）
EXTD=
EXTT0=
EXTT1=
EXTT2=
EXTT3=
EXTT4=
PLAYORDER=
